<?xml version="1.0" encoding="UTF-8"?>
<svg version="1.1" xmlns="http://www.w3.org/2000/svg" width="43" height="43">
<path d="M0 0 C0.556875 0.29261719 1.11375 0.58523437 1.6875 0.88671875 C4.08331214 2.04010804 6.49779818 2.91613197 9 3.8125 C14.04861271 5.79774241 16.56136369 8.12272738 19 13 C19.40198848 15.94791553 19.58248914 18.07845002 17.953125 20.65625 C16.09011328 22.89186406 14.05658901 24.94341099 12 27 C15.63 27 19.26 27 23 27 C21 30 21 30 17.6875 30.6875 C9.56390977 31.37593985 9.56390977 31.37593985 6 29 C6 28.34 6 27.68 6 27 C3.69 26.34 1.38 25.68 -1 25 C-0.34 23.68 0.32 22.36 1 21 C0.32582031 20.49726563 -0.34835938 19.99453125 -1.04296875 19.4765625 C-3 17 -3 17 -2.98828125 13.3984375 C-2.78577171 12.05366827 -2.55971614 10.71227281 -2.3125 9.375 C-2.20744141 8.694375 -2.10238281 8.01375 -1.99414062 7.3125 C-1.57387448 4.70324027 -1.18857101 2.37714201 0 0 Z M9 7 C8.9189794 9.10353495 8.86080093 11.20795952 8.8125 13.3125 C8.77769531 14.48425781 8.74289063 15.65601563 8.70703125 16.86328125 C8.71282601 19.99288464 8.71282601 19.99288464 10.51171875 21.91796875 C11.00285156 22.27503906 11.49398438 22.63210937 12 23 C14.27941255 21.29044059 15.78459891 19.93022771 16.44140625 17.09375 C16.56789601 14.90670123 16.51955804 13.13062457 16 11 C13.77693597 8.41981677 13.77693597 8.41981677 11 7 C10.34 7 9.68 7 9 7 Z M2 22 C2 22.66 2 23.32 2 24 C2.99 23.67 3.98 23.34 5 23 C4.01 22.67 3.02 22.34 2 22 Z " fill="#727272" transform="translate(15,6)"/>
<path d="M0 0 C1.875 0.625 1.875 0.625 4 2 C5.25 5.125 5.25 5.125 6 8 C6.66 7.67 7.32 7.34 8 7 C8.33808686 9.06172613 8.67027361 11.1244203 9 13.1875 C9.185625 14.33605469 9.37125 15.48460937 9.5625 16.66796875 C9.93489477 19.50415393 10.08596021 22.14719564 10 25 C8.5 23.625 8.5 23.625 7 22 C7 21.34 7 20.68 7 20 C4.36 20 1.72 20 -1 20 C-3.14629181 15.74731027 -3.00848807 12.95770347 -2.1875 8.3125 C-1.99542969 7.17425781 -1.80335937 6.03601563 -1.60546875 4.86328125 C-1 2 -1 2 0 0 Z " fill="#5A5A5A" transform="translate(15,6)"/>
<path d="M0 0 C0.66 0 1.32 0 2 0 C2.33 1.65 2.66 3.3 3 5 C3.66 4.67 4.32 4.34 5 4 C5.66 7.96 6.32 11.92 7 16 C6.34 16.33 5.68 16.66 5 17 C2.39453125 16.01171875 2.39453125 16.01171875 0 14 C-0.48828125 10.64453125 -0.48828125 10.64453125 -0.3125 6.8125 C-0.24482422 4.90404297 -0.24482422 4.90404297 -0.17578125 2.95703125 C-0.11777344 1.98121094 -0.05976563 1.00539063 0 0 Z " fill="#525252" transform="translate(18,9)"/>
<path d="M0 0 C4.62 0 9.24 0 14 0 C14.33 0.99 14.66 1.98 15 3 C14 4 14 4 10.875 4.1875 C6.82754737 3.99165552 3.82368327 3.24854964 0 2 C0 1.34 0 0.68 0 0 Z " fill="#939393" transform="translate(5,33)"/>
<path d="M0 0 C4.95 0 9.9 0 15 0 C13 3 13 3 9.6875 3.6875 C6.75903238 3.93567522 3.9340986 4.08891208 1 4 C0.67 2.68 0.34 1.36 0 0 Z " fill="#A7A7A7" transform="translate(23,33)"/>
<path d="M0 0 C0.99 0 1.98 0 3 0 C3.34740318 2.91818671 3.50109494 5.13765057 1.9921875 7.734375 C0.6875 9.375 0.6875 9.375 -2 12 C-2.99 12 -3.98 12 -5 12 C-3.84826645 9.53199953 -2.95216435 7.95216435 -1 6 C-0.60235737 4.01178687 -0.26224651 2.01055661 0 0 Z " fill="#777777" transform="translate(31,19)"/>
<path d="M0 0 C1.65 0 3.3 0 5 0 C5 2.97 5 5.94 5 9 C3.68 8.34 2.36 7.68 1 7 C0.25 3.375 0.25 3.375 0 0 Z " fill="#A1A1A1" transform="translate(20,10)"/>
<path d="M0 0 C1.32 0 2.64 0 4 0 C4.33 0.99 4.66 1.98 5 3 C4 4 4 4 0.4375 4.0625 C-0.696875 4.041875 -1.83125 4.02125 -3 4 C-2.34 3.34 -1.68 2.68 -1 2 C-0.67 1.34 -0.34 0.68 0 0 Z " fill="#BFBFBF" transform="translate(15,33)"/>
<path d="M0 0 C2.97 0.495 2.97 0.495 6 1 C5.67 2.32 5.34 3.64 5 5 C2.5 3.625 2.5 3.625 0 2 C0 1.34 0 0.68 0 0 Z " fill="#363636" transform="translate(16,25)"/>
<path d="M0 0 C0.66 0 1.32 0 2 0 C2 0.66 2 1.32 2 2 C3.32 2.33 4.64 2.66 6 3 C6 3.33 6 3.66 6 4 C4.02 4 2.04 4 0 4 C0 2.68 0 1.36 0 0 Z " fill="#353535" transform="translate(15,28)"/>
</svg>
